<svg width="145" height="42" viewBox="0 0 145 42" fill="none" xmlns="http://www.w3.org/2000/svg">
<path fill-rule="evenodd" clip-rule="evenodd" d="M23.778 26.01C26.0689 24.092 26.3699 20.6815 24.4503 18.3924L24.207 18.1024L28.1026 14.8409L28.3458 15.1309C32.0683 19.5697 31.4846 26.1831 27.0422 29.9024L23.778 26.01Z" fill="url(#paint0_linear_4007_3675)"/>
<path fill-rule="evenodd" clip-rule="evenodd" d="M16.7766 24.3216L17.0198 24.6116L13.1243 27.8731L12.881 27.5831C9.15856 23.1443 9.74221 16.5309 14.1846 12.8116L17.4489 16.7039C15.1579 18.622 14.8569 22.0325 16.7766 24.3216Z" fill="url(#paint1_linear_4007_3675)"/>
<path d="M12.3985 10.9638L22.3584 9.29L18.8443 18.6499L12.3985 10.9638ZM18.8867 33.4255L22.4008 24.0656L28.8466 31.7518L18.8867 33.4255Z" fill="#7F38E9"/>
<path d="M41.9907 23.5243H45.3817C45.4487 24.0936 45.7082 24.6127 46.1603 25.0816C46.6292 25.5337 47.2404 25.8937 47.994 26.1617C48.7475 26.4128 49.5931 26.5384 50.5309 26.5384C51.3849 26.5384 52.0882 26.4463 52.6408 26.2621C53.1934 26.0779 53.6037 25.8184 53.8716 25.4835C54.1395 25.1486 54.2735 24.7467 54.2735 24.2778C54.2735 23.8257 54.106 23.4824 53.7711 23.248C53.4362 22.9968 52.9087 22.7958 52.1887 22.6451C51.4686 22.4777 50.5225 22.3102 49.3503 22.1428C48.4293 22.0088 47.5586 21.8246 46.7381 21.5902C45.9175 21.339 45.1891 21.0208 44.5528 20.6357C43.9332 20.2505 43.4392 19.7817 43.0708 19.2291C42.7192 18.6597 42.5433 17.9899 42.5433 17.2196C42.5433 16.2651 42.8113 15.4278 43.3471 14.7078C43.8997 13.9877 44.7119 13.4268 45.7836 13.0249C46.8553 12.623 48.1698 12.422 49.7271 12.422C52.0715 12.422 53.8716 12.9244 55.1275 13.9291C56.4002 14.9171 57.0197 16.2819 56.9862 18.0234H53.7209C53.6539 17.0354 53.2353 16.3237 52.465 15.8883C51.7114 15.453 50.757 15.2353 49.6015 15.2353C48.5298 15.2353 47.6423 15.3944 46.939 15.7125C46.2524 16.0307 45.9092 16.5749 45.9092 17.3452C45.9092 17.6466 45.9929 17.9145 46.1603 18.149C46.3278 18.3667 46.6125 18.5592 47.0144 18.7267C47.4162 18.8941 47.9605 19.0532 48.647 19.2039C49.3336 19.3546 50.1876 19.5054 51.2091 19.6561C52.1636 19.79 53.026 19.9742 53.7962 20.2087C54.5833 20.4264 55.2531 20.7194 55.8057 21.0878C56.375 21.4394 56.8104 21.8916 57.1118 22.4442C57.4133 22.9968 57.564 23.675 57.564 24.4787C57.564 25.4667 57.3044 26.3291 56.7853 27.0659C56.2829 27.786 55.4959 28.3469 54.4242 28.7488C53.3692 29.1507 51.9961 29.3517 50.3048 29.3517C49.0992 29.3517 48.0358 29.2261 47.1148 28.9749C46.1938 28.707 45.3984 28.3553 44.7286 27.9199C44.0588 27.4845 43.5146 27.0073 43.0959 26.4882C42.6773 25.9691 42.3759 25.45 42.1917 24.9309C42.0242 24.4118 41.9572 23.9429 41.9907 23.5243ZM63.2042 25.4583V22.6702H73.9547V25.4583H63.2042ZM59.1601 29L66.796 12.7486H70.4131L78.1243 29H74.4822L67.8008 14.3561H69.4083L62.7771 29H59.1601ZM80.8638 29V12.7486H91.8906C93.1465 12.7486 94.235 12.9244 95.156 13.2761C96.0937 13.611 96.8221 14.1468 97.3412 14.8836C97.8603 15.6037 98.1199 16.533 98.1199 17.6717C98.1199 18.442 97.9859 19.0951 97.718 19.6309C97.4501 20.1668 97.0733 20.6022 96.5877 20.9371C96.1188 21.272 95.5746 21.5315 94.955 21.7157C94.3354 21.8832 93.674 21.992 92.9707 22.0423L92.619 21.8413C93.7912 21.8581 94.7541 21.9586 95.5076 22.1428C96.2612 22.3102 96.8221 22.6284 97.1905 23.0972C97.5757 23.5494 97.7682 24.2276 97.7682 25.1318V29H94.4275V25.3579C94.4275 24.7383 94.3187 24.261 94.101 23.9261C93.8833 23.5745 93.4898 23.3317 92.9204 23.1977C92.3679 23.0638 91.5641 22.9968 90.5091 22.9968H84.2045V29H80.8638ZM84.2045 20.3845H91.8906C92.8283 20.3845 93.54 20.1584 94.0256 19.7063C94.528 19.2542 94.7792 18.643 94.7792 17.8727C94.7792 17.1359 94.528 16.5749 94.0256 16.1898C93.54 15.8046 92.8283 15.612 91.8906 15.612H84.2045V20.3845ZM104.529 25.4583V22.6702H115.28V25.4583H104.529ZM100.485 29L108.121 12.7486H111.738L119.449 29H115.807L109.126 14.3561H110.734L104.102 29H100.485ZM125.53 12.7486V26.2119H136.33V29H122.189V12.7486H125.53Z" fill="#7F38E9"/>
<defs>
<linearGradient id="paint0_linear_4007_3675" x1="25.581" y1="27.4623" x2="32.0228" y2="21.748" gradientUnits="userSpaceOnUse">
<stop stop-color="#7357E9"/>
<stop offset="1" stop-color="#5735E4"/>
</linearGradient>
<linearGradient id="paint1_linear_4007_3675" x1="15.6458" y1="15.2516" x2="9.20407" y2="20.9659" gradientUnits="userSpaceOnUse">
<stop stop-color="#7357E9"/>
<stop offset="1" stop-color="#5735E4"/>
</linearGradient>
</defs>
</svg>
