<svg width="26" height="27" viewBox="0 0 26 27" fill="none" xmlns="http://www.w3.org/2000/svg">
<path d="M13 3.17188C13.4568 3.17188 13.8987 3.33361 14.248 3.62793L21.5605 9.79395C21.9976 10.1629 22.25 10.7049 22.25 11.2754V21.3613C22.2499 21.7314 22.1025 22.086 21.8408 22.3477C21.5791 22.6093 21.2246 22.7568 20.8545 22.7568H17.0625C16.6923 22.7568 16.337 22.6094 16.0752 22.3477C15.8137 22.086 15.6671 21.7313 15.667 21.3613V15.9365C15.6669 15.7322 15.5849 15.5361 15.4404 15.3916C15.2959 15.2472 15.0998 15.166 14.8955 15.166H11.1045C10.9512 15.166 10.8025 15.2121 10.6768 15.2959L10.5596 15.3916C10.4151 15.5361 10.3331 15.7322 10.333 15.9365V21.3613C10.3329 21.7313 10.1863 22.086 9.9248 22.3477C9.66304 22.6094 9.3077 22.7568 8.9375 22.7568H5.14551C4.96232 22.7568 4.78058 22.7205 4.61133 22.6504C4.44213 22.5802 4.2887 22.4772 4.15918 22.3477C4.02966 22.2181 3.92659 22.0647 3.85645 21.8955C3.78634 21.7262 3.75004 21.5445 3.75 21.3613V11.2754C3.75 10.7763 3.94318 10.2991 4.28418 9.94043L4.43945 9.79395L11.752 3.62793L11.751 3.62695C12.1004 3.33258 12.5431 3.17188 13 3.17188ZM13 3.79688C12.6907 3.79688 12.3909 3.90629 12.1543 4.10547L4.8418 10.2705C4.69566 10.3935 4.57873 10.5475 4.49805 10.7207C4.41737 10.8939 4.37522 11.0824 4.375 11.2734V21.3604C4.37521 21.7857 4.72015 22.1307 5.14551 22.1309H8.9375C9.14184 22.1309 9.33788 22.0497 9.48242 21.9053C9.62689 21.7608 9.7079 21.5646 9.70801 21.3604V15.9355C9.70809 15.1644 10.334 14.54 11.1045 14.54H14.8955C15.666 14.54 16.2919 15.1644 16.292 15.9355V21.3604C16.2922 21.7858 16.637 22.1309 17.0625 22.1309H20.8545C21.0588 22.1308 21.2549 22.0497 21.3994 21.9053C21.5439 21.7608 21.6249 21.5646 21.625 21.3604V11.2734C21.6248 11.0824 21.5826 10.8938 21.502 10.7207C21.4212 10.5475 21.3034 10.3936 21.1572 10.2705L13.8457 4.10547L13.7539 4.03516C13.5338 3.88075 13.2707 3.79688 13 3.79688Z" fill="#7F38E9" stroke="#404040"/>
</svg>
